<svg width="1645" height="1749" viewBox="0 0 1645 1749" fill="none" xmlns="http://www.w3.org/2000/svg">
<rect x="829" y="463.755" width="32" height="776.086" fill="#9333EA"/>
<rect x="909" y="463.755" width="32" height="776.086" fill="#CA8A04"/>
<rect x="989" y="463.755" width="32" height="776.086" fill="#C026D3"/>
<path d="M954 1607C962.799 1607 971.511 1605.27 979.64 1601.9C987.769 1598.53 995.155 1593.6 1001.38 1587.38C1007.6 1581.15 1012.53 1573.77 1015.9 1565.64C1019.27 1557.51 1021 1548.8 1021 1540H989.001C989.001 1544.6 988.095 1549.15 986.337 1553.39C984.578 1557.64 981.999 1561.5 978.749 1564.75C975.499 1568 971.641 1570.58 967.394 1572.34C963.148 1574.1 958.596 1575 954 1575V1607Z" fill="#C026D3"/>
<rect x="954" y="1607" width="954" height="32" transform="rotate(180 954 1607)" fill="#C026D3"/>
<rect x="1021" y="1540" width="32" height="301" transform="rotate(180 1021 1540)" fill="#C026D3"/>
<path d="M794 1749C802.799 1749 811.511 1747.27 819.64 1743.9C827.769 1740.53 835.155 1735.6 841.376 1729.38C847.598 1723.15 852.533 1715.77 855.9 1707.64C859.267 1699.51 861 1690.8 861 1682H829.001C829.001 1686.6 828.095 1691.15 826.337 1695.39C824.578 1699.64 821.999 1703.5 818.749 1706.75C815.499 1710 811.641 1712.58 807.394 1714.34C803.148 1716.1 798.596 1717 794 1717V1749Z" fill="#9333EA"/>
<rect x="794" y="1749" width="794" height="32" transform="rotate(180 794 1749)" fill="#9333EA"/>
<rect x="861" y="1682" width="32" height="443" transform="rotate(180 861 1682)" fill="#9333EA"/>
<path d="M874 1693C882.799 1693 891.511 1691.27 899.64 1687.9C907.769 1684.53 915.155 1679.6 921.376 1673.38C927.598 1667.15 932.533 1659.77 935.9 1651.64C939.267 1643.51 941 1634.8 941 1626H909.001C909.001 1630.6 908.095 1635.15 906.337 1639.39C904.578 1643.64 901.999 1647.5 898.749 1650.75C895.499 1654 891.641 1656.58 887.394 1658.34C883.148 1660.1 878.596 1661 874 1661V1693Z" fill="#CA8A04"/>
<rect x="874" y="1693" width="874" height="32" transform="rotate(180 874 1693)" fill="#CA8A04"/>
<rect x="941" y="1626" width="32" height="386" transform="rotate(180 941 1626)" fill="#CA8A04"/>
<path d="M896 160C887.201 160 878.489 161.733 870.36 165.1C862.231 168.467 854.845 173.402 848.624 179.624C842.402 185.845 837.467 193.231 834.1 201.36C830.733 209.489 829 218.201 829 227H860.999C860.999 222.404 861.905 217.852 863.663 213.606C865.422 209.359 868.001 205.501 871.251 202.251C874.501 199.001 878.359 196.422 882.606 194.663C886.852 192.905 891.404 191.999 896 191.999V160Z" fill="#9333EA"/>
<rect x="896" y="160" width="749" height="32" fill="#9333EA"/>
<rect x="829" y="227" width="32" height="237" fill="#9333EA"/>
<path d="M1056 0C1047.2 -1.04922e-07 1038.49 1.73301 1030.36 5.10007C1022.23 8.46714 1014.85 13.4023 1008.62 19.6238C1002.4 25.8454 997.467 33.2314 994.1 41.3602C990.733 49.489 989 58.2014 989 67H1021C1021 62.4036 1021.9 57.8523 1023.66 53.6058C1025.42 49.3593 1028 45.5008 1031.25 42.2507C1034.5 39.0006 1038.36 36.4224 1042.61 34.6635C1046.85 32.9045 1051.4 31.9992 1056 31.9992V0Z" fill="#C026D3"/>
<rect x="1056" width="589" height="32" fill="#C026D3"/>
<rect x="989" y="67" width="32" height="397" fill="#C026D3"/>
<path d="M976 80C967.201 80 958.489 81.733 950.36 85.1001C942.231 88.4671 934.845 93.4023 928.624 99.6238C922.402 105.845 917.467 113.231 914.1 121.36C910.733 129.489 909 138.201 909 147H940.999C940.999 142.404 941.905 137.852 943.663 133.606C945.422 129.359 948.001 125.501 951.251 122.251C954.501 119.001 958.359 116.422 962.606 114.663C966.852 112.905 971.404 111.999 976 111.999V80Z" fill="#CA8A04"/>
<rect x="976" y="80" width="669" height="32" fill="#CA8A04"/>
<rect x="909" y="147" width="32" height="317" fill="#CA8A04"/>
</svg>
